<svg xmlns="http://www.w3.org/2000/svg" width="1280" height="640" viewBox="0 0 1280 640" role="img" aria-labelledby="title desc">
  <title id="title">hai-skills social preview</title>
  <desc id="desc">Reusable Codex skills for personal AI workflows, featuring Knowledge System Curator.</desc>
  <defs>
    <linearGradient id="bg" x1="0" y1="0" x2="1" y2="1">
      <stop offset="0%" stop-color="#0f172a"/>
      <stop offset="52%" stop-color="#12343b"/>
      <stop offset="100%" stop-color="#0b5d69"/>
    </linearGradient>
    <linearGradient id="wave" x1="0" y1="0" x2="1" y2="0">
      <stop offset="0%" stop-color="#7dd3fc" stop-opacity="0.92"/>
      <stop offset="48%" stop-color="#5eead4" stop-opacity="0.9"/>
      <stop offset="100%" stop-color="#facc15" stop-opacity="0.88"/>
    </linearGradient>
    <filter id="soft-shadow" x="-20%" y="-20%" width="140%" height="140%">
      <feDropShadow dx="0" dy="18" stdDeviation="24" flood-color="#020617" flood-opacity="0.28"/>
    </filter>
  </defs>

  <rect width="1280" height="640" fill="url(#bg)"/>
  <path d="M0 464 C180 384 294 530 472 454 C632 386 756 288 930 354 C1072 408 1142 456 1280 392 L1280 640 L0 640 Z" fill="#062d36" opacity="0.88"/>
  <path d="M0 488 C190 408 308 548 490 472 C650 404 772 310 944 374 C1084 426 1150 476 1280 416" fill="none" stroke="url(#wave)" stroke-width="10" stroke-linecap="round" opacity="0.95"/>
  <path d="M0 520 C166 468 304 560 474 520 C650 476 744 386 938 430 C1098 466 1162 510 1280 466" fill="none" stroke="#bae6fd" stroke-width="3" stroke-linecap="round" opacity="0.52"/>

  <g filter="url(#soft-shadow)">
    <rect x="88" y="86" width="1104" height="396" rx="28" fill="#f8fafc" opacity="0.96"/>
    <rect x="112" y="110" width="1056" height="348" rx="20" fill="#ffffff"/>
  </g>

  <text x="150" y="190" font-family="Inter, ui-sans-serif, system-ui, -apple-system, BlinkMacSystemFont, Segoe UI, sans-serif" font-size="76" font-weight="800" fill="#0f172a">hai-skills</text>
  <text x="154" y="252" font-family="Inter, ui-sans-serif, system-ui, -apple-system, BlinkMacSystemFont, Segoe UI, sans-serif" font-size="30" font-weight="600" fill="#0f766e">Reusable Codex skills for personal AI workflows</text>

  <rect x="154" y="306" width="392" height="58" rx="12" fill="#ecfeff" stroke="#99f6e4"/>
  <text x="180" y="344" font-family="Inter, ui-sans-serif, system-ui, -apple-system, BlinkMacSystemFont, Segoe UI, sans-serif" font-size="24" font-weight="700" fill="#115e59">Knowledge System Curator</text>

  <text x="154" y="404" font-family="Inter, ui-sans-serif, system-ui, -apple-system, BlinkMacSystemFont, Segoe UI, sans-serif" font-size="28" font-weight="500" fill="#334155">Turn scattered notes into structured knowledge systems.</text>

  <g transform="translate(822 134)">
    <rect x="0" y="0" width="260" height="260" rx="26" fill="#0f172a"/>
    <path d="M54 88 H206" stroke="#7dd3fc" stroke-width="12" stroke-linecap="round"/>
    <path d="M54 130 H184" stroke="#5eead4" stroke-width="12" stroke-linecap="round"/>
    <path d="M54 172 H154" stroke="#facc15" stroke-width="12" stroke-linecap="round"/>
    <circle cx="54" cy="88" r="9" fill="#e0f2fe"/>
    <circle cx="54" cy="130" r="9" fill="#ccfbf1"/>
    <circle cx="54" cy="172" r="9" fill="#fef3c7"/>
    <path d="M204 78 C224 102 224 158 204 182" fill="none" stroke="#e2e8f0" stroke-width="8" stroke-linecap="round"/>
  </g>
</svg>
